<svg width="28" height="20" viewBox="0 0 28 20" fill="none" xmlns="http://www.w3.org/2000/svg">
<path d="M0.341463 0.5C0.152296 0.5 0 0.654385 0 0.846154C0 1.06457 0.100818 1.27075 0.273198 1.40488L13.3859 11.6076C13.7471 11.8886 14.2529 11.8886 14.6141 11.6076L27.7268 1.40488C27.8992 1.27075 28 1.06457 28 0.846154C28 0.654385 27.8477 0.5 27.6585 0.5H0.341463ZM1.61406 5.18965C0.957226 4.67862 0 5.14669 0 5.97891V19.1538C0 19.3456 0.152296 19.5 0.341463 19.5H27.6585C27.8477 19.5 28 19.3456 28 19.1538V5.97891C28 5.14669 27.0428 4.67862 26.3859 5.18965L14.4162 14.5024C14.2968 14.5954 14.1505 14.6458 14 14.6458C13.8495 14.6458 13.7032 14.5954 13.5838 14.5024L1.61406 5.18965Z" fill="#DBDFE1"/>
</svg>
